<?xml version="1.0" encoding="utf-8"?>
<!-- Generator: Adobe Illustrator 24.0.1, SVG Export Plug-In . SVG Version: 6.00 Build 0)  -->
<svg version="1.1" id="Layer_1" xmlns="http://www.w3.org/2000/svg" xmlns:xlink="http://www.w3.org/1999/xlink" x="0px" y="0px"
	 viewBox="0 0 512 512" style="enable-background:new 0 0 512 512;" xml:space="preserve">
<style type="text/css">
	.st0{fill:#FFFFFF;}
</style>
<path class="st0" d="M12.76,256.44c0-34.5-0.01-69.01,0.01-103.51c0.01-12.48,4.76-17.3,17.09-17.3c69.19-0.01,138.38-0.01,207.57,0
	c12.14,0,16.98,4.81,16.99,16.96c0.02,69.17,0.02,138.35,0,207.52c0,12.12-4.89,17.04-16.9,17.04c-69.36,0.02-138.71,0.02-208.07,0
	c-11.74,0-16.66-4.94-16.67-16.7C12.74,325.78,12.76,291.11,12.76,256.44z M112.37,216.96c0,2.68,0,4.67,0,6.66
	c0,33.01-0.01,66.01,0.01,99.02c0.01,8.62,1.99,10.54,10.66,10.56c6.67,0.02,13.34,0.01,20.01,0c9.76-0.01,11.38-1.59,11.38-11.25
	c0.01-33.01,0-66.01,0-99.02c0-1.91,0-3.81,0-5.97c11.87,0,22.87,0.05,33.86-0.02c6.14-0.04,8.81-2.72,8.87-8.83
	c0.06-6.67,0.07-13.34,0-20c-0.06-5.8-2.44-8.46-8.04-8.47c-37.02-0.07-74.03-0.07-111.05,0c-5.62,0.01-8.1,2.69-8.17,8.38
	c-0.07,6.33-0.03,12.67-0.01,19c0.02,7.45,2.44,9.92,9.81,9.94C90.34,216.98,100.98,216.96,112.37,216.96z"/>
<path class="st0" d="M157.62,392.08c2.36,0,4.14,0,5.91,0c25.01,0,50.02,0.02,75.03-0.01c18.71-0.02,30.63-11.87,30.64-30.54
	c0.04-49.84,0.01-99.69,0.01-149.53c0-1.96,0-3.91,0-6.49c2.38,0,4.16,0,5.95,0c33.68,0,67.36-0.01,101.05,0
	c13.11,0.01,18.18,5.02,18.16,18.11c-0.06,47.51,0.75,95.04-0.52,142.52c-1.26,47.14-36,101.29-97.02,112.79
	c-61.29,11.55-118.14-22.3-137.76-81.53C158.56,395.87,158.22,394.28,157.62,392.08z"/>
<path class="st0" d="M400.19,407.74c7.41-19.13,9.32-38.49,9.16-58.32c-0.32-40.82-0.02-81.64-0.18-122.46
	c-0.03-6.87-1.1-13.74-1.73-21.21c0.65-0.04,2.36-0.22,4.08-0.22c23.17-0.02,46.33-0.03,69.5,0c13.33,0.02,18.35,5.07,18.34,18.47
	c-0.04,39.49,0.37,78.98-0.29,118.46c-0.55,33.16-27.32,62.97-60.07,68.47C425.98,413.1,413.2,412.57,400.19,407.74z"/>
<path class="st0" d="M230.89,120.77c-3-0.01-6-0.01-8.99-0.01c-7.91,0-7.91,0-9.6-7.77c-8.12-37.27,18.14-76.2,56.39-81.6
	c34.69-4.9,72.02,14.37,78.11,58.2c6.15,44.27-28.89,80.84-73.45,77.39c-3.25-0.25-4.34-1.27-4.18-4.47
	c0.22-4.48,0.11-8.99,0.02-13.49c-0.3-15.83-12.49-27.99-28.31-28.24C237.56,120.73,234.22,120.78,230.89,120.77z"/>
<path class="st0" d="M442.62,167.18c-24.79-0.09-45.13-20.35-44.88-44.68c0.27-25.75,19.36-44.89,44.87-44.99
	c25.59-0.1,45.2,19.5,45.26,45.23C487.93,146.98,467.26,167.28,442.62,167.18z"/>
</svg>
