<?xml version="1.0" encoding="utf-8"?>
<!-- Generator: Adobe Illustrator 24.0.1, SVG Export Plug-In . SVG Version: 6.00 Build 0)  -->
<svg version="1.1" id="Layer_1" xmlns="http://www.w3.org/2000/svg" xmlns:xlink="http://www.w3.org/1999/xlink" x="0px" y="0px"
	 viewBox="0 0 512 512" style="enable-background:new 0 0 512 512;" xml:space="preserve">
<style type="text/css">
	.st0{fill:#FFFFFF;}
</style>
<path class="st0" d="M0,416.99C0,309.65,0,202.31,0,94.97c0.25-0.43,0.64-0.84,0.72-1.3c4.3-25.08,27.52-43.01,54.16-42.83
	c81.44,0.55,162.89,0.2,244.34,0.2c53.47,0,106.93-0.02,160.4,0.01c16.86,0.01,30.55,6.73,41.27,19.72
	c5.86,7.1,8.74,15.52,11.11,24.2c0,107.34,0,214.68,0,322.02c-0.25,0.43-0.64,0.84-0.72,1.3c-4.3,25.08-27.52,43.01-54.16,42.83
	c-81.44-0.55-162.89-0.2-244.34-0.2c-53.47,0-106.93,0.02-160.4-0.01c-16.86-0.01-30.55-6.73-41.27-19.72
	C5.25,434.09,2.37,425.67,0,416.99z M51.43,409.05c17.18,0,33.75,0,50.94,0c0-74.87,0-149.37,0-224.75
	c2.51,1.54,4.19,2.54,5.84,3.58c47.81,30.28,95.64,60.53,143.37,90.93c3.31,2.11,5.54,2.09,8.84-0.01
	c47.87-30.49,95.84-60.83,143.8-91.19c1.58-1,3.24-1.89,5.79-3.36c0,75.74,0,150.29,0,224.79c17.15,0,33.73,0,50.44,0
	c0-102.26,0-204.14,0-306.48c-7.84,0-15.33,0.24-22.79-0.08c-5.22-0.22-9.57,1.13-14.02,3.89
	c-54.45,33.78-109.01,67.37-163.46,101.15c-3.15,1.95-5.23,1.93-8.36-0.01c-53.74-33.33-107.63-66.44-161.32-99.87
	c-5.95-3.71-11.74-5.59-18.67-5.17c-6.73,0.41-13.5,0.09-20.39,0.09C51.43,205.17,51.43,306.92,51.43,409.05z"/>
</svg>
